<?xml version="1.0" encoding="utf-8"?>
<!-- Generator: Adobe Illustrator 27.0.0, SVG Export Plug-In . SVG Version: 6.00 Build 0)  -->
<svg version="1.1" id="Layer_1" xmlns="http://www.w3.org/2000/svg" xmlns:xlink="http://www.w3.org/1999/xlink" x="0px" y="0px"
	 viewBox="0 0 20 20" style="enable-background:new 0 0 20 20;" xml:space="preserve">
<style type="text/css">
	.st0{opacity:0.8;}
	.st1{fill:#875CA8;}
	.st2{fill:#C6AFDB;}
</style>
<g class="st0">
	<path class="st1" d="M9,7.5C9,8.2,9,9,9,9.8c0,0.8,0.4,1.2,1.2,1.2c1.5,0,3.1,0,4.6,0c0.5,0,1,0.4,1.1,0.9c0,0.1,0,0.2,0,0.3
		c-0.2,1.1-0.7,2.1-1.4,3c-1.1,1.3-2.4,2.1-4,2.4c-0.7,0.1-1.5,0.1-2.2,0c-1.2-0.2-2.2-0.6-3.2-1.4c-1-0.8-1.7-1.8-2.2-2.9
		c-0.4-1-0.5-2-0.4-3c0.1-1.4,0.6-2.6,1.5-3.6c0.9-1.1,2-1.8,3.3-2.3C7.5,4.2,7.8,4.1,8,4.1C8.5,4,9,4.5,9,5C9.1,5.8,9,6.6,9,7.5z"
		/>
	<path class="st2" d="M14.1,9.4c-0.8,0-1.6,0-2.4,0c-0.7,0-1.1-0.4-1.1-1.1c0-1.6,0-3.2,0-4.8c0-0.7,0.5-1.2,1.2-1
		c2.8,0.5,4.7,2.2,5.5,4.9c0.1,0.3,0.1,0.5,0.2,0.8c0.1,0.7-0.4,1.2-1,1.2C15.7,9.4,14.9,9.4,14.1,9.4z"/>
</g>
</svg>
