<svg width="48" height="48" viewBox="0 0 48 48" fill="none" xmlns="http://www.w3.org/2000/svg">
<path d="M23.2823 6.40594C27.8142 6.40594 32.3461 6.40594 36.878 6.40594C39.6052 6.40594 41.9313 8.34436 42.4259 11.0181C42.5463 11.6865 42.4527 12.3683 42.4527 13.0501C42.4393 16.4323 42.4527 19.8145 42.4527 23.1967C42.4527 24.0122 42.1318 24.2261 41.3431 23.9988C37.8272 22.9561 34.592 23.5443 31.6777 25.7501C29.3783 27.488 28.0281 29.8408 27.6271 32.7151C27.4934 33.6642 27.4934 34.6 27.6003 35.5492C27.6404 35.9235 27.3597 36.2711 26.9854 36.3112C26.8383 36.3245 26.6913 36.3112 26.5309 36.3112C21.2369 36.3112 15.9297 36.2978 10.6358 36.3245C9.6866 36.3245 8.75081 36.4181 7.84176 36.0705C5.59586 35.2016 4.27238 33.6107 4.01838 31.1777C3.96491 30.7365 4.04512 30.3221 4.04512 29.8943C4.04512 24.2261 4.05849 18.5579 4.01838 12.8896C4.01838 11.9405 4.00501 11.0047 4.32586 10.0956C5.08786 7.94331 7.24018 6.40594 9.52618 6.40594C14.1116 6.39257 18.6969 6.40594 23.2823 6.40594ZM23.2556 14.9885C19.7129 14.9885 16.8655 17.8226 16.8521 21.3519C16.8387 24.8811 19.6728 27.7554 23.2021 27.7687C26.8918 27.7821 29.6457 24.8277 29.6457 21.392C29.6724 17.836 26.8116 14.9885 23.2556 14.9885ZM8.33639 21.3652C8.33639 22.555 9.25881 23.5042 10.4352 23.5042C11.6117 23.5042 12.5608 22.5818 12.5608 21.392C12.5608 20.1754 11.625 19.2129 10.4352 19.2129C9.28555 19.2263 8.33639 20.1888 8.33639 21.3652Z" fill="#435AAA"/>
<path d="M23.2554 14.9885C26.8248 14.9885 29.6723 17.836 29.6589 21.392C29.6455 24.841 26.905 27.7955 23.2153 27.7687C19.6727 27.7554 16.8519 24.8678 16.8653 21.3519C16.8653 17.836 19.7128 14.9885 23.2554 14.9885Z" fill="#AFB9D3"/>
<path d="M8 21.2627C8 19.9083 9.0774 18.8001 10.4164 18.8001C11.7709 18.8001 12.8637 19.9083 12.8637 21.3089C12.8637 22.6633 11.7709 23.7407 10.4164 23.7407C9.062 23.7253 8 22.6325 8 21.2627Z" fill="#AFB9D3"/>
<path d="M36.0001 33.0719L34.8947 33.6246C33.9068 34.1186 32.7055 33.7181 32.2116 32.7302C31.7176 31.7423 32.118 30.541 33.1059 30.0471L37.0697 28.0652C37.0943 28.0522 37.1192 28.0398 37.1444 28.0278L38 27.6L38.8556 28.0278C38.8808 28.0398 38.9057 28.0522 38.9303 28.0652L42.8941 30.0471C43.882 30.541 44.2824 31.7423 43.7884 32.7302C43.2945 33.7181 42.0932 34.1186 41.1053 33.6246L39.9999 33.0719V39.3021C39.9999 40.4066 39.1045 41.3019 38 41.3019C36.8955 41.3019 36.0001 40.4066 36.0001 39.3021V33.0719Z" fill="#AFB9D3"/>
</svg>
