<svg width="48" height="48" viewBox="0 0 48 48" fill="none" xmlns="http://www.w3.org/2000/svg">
<path d="M23.2191 6.41362C27.7322 6.41362 32.2454 6.44033 36.7585 6.40027C39.4557 6.37357 41.819 8.2696 42.3665 10.9935C42.5 11.6611 42.4065 12.3421 42.4065 13.0231C42.3932 16.3879 42.4065 19.7527 42.4065 23.1041C42.4065 24.0121 42.1128 24.199 41.2315 23.9587C37.6798 22.9439 34.4351 23.5715 31.5243 25.8414C29.4413 27.457 28.1862 29.5934 27.6788 32.1838C27.4652 33.2787 27.4518 34.3869 27.5854 35.5085C27.6254 35.8824 27.3717 36.2429 26.9979 36.283C26.851 36.2963 26.7041 36.283 26.5439 36.283C21.2296 36.283 15.9287 36.2696 10.6144 36.2963C9.63972 36.2963 8.665 36.3764 7.73033 35.9892C5.55389 35.1079 4.29876 33.5324 4.01836 31.169C3.96495 30.7017 4.04506 30.2477 4.04506 29.7803C4.04506 24.159 4.05842 18.5243 4.03171 12.9029C4.03171 12.1685 3.96495 11.4608 4.13853 10.7398C4.75274 8.20285 6.99595 6.41362 9.59967 6.40027C14.1261 6.41362 18.666 6.41362 23.2191 6.41362ZM23.2325 14.9992C19.6807 14.9992 16.8367 17.8166 16.81 21.3283C16.7966 24.88 19.6407 27.7641 23.1791 27.7641C26.8643 27.7641 29.5749 24.8266 29.5882 21.4217C29.6149 17.8566 26.7842 14.9992 23.2325 14.9992ZM12.5238 21.3683C12.5238 20.18 11.5892 19.2319 10.4275 19.2186C9.2525 19.2052 8.30448 20.1799 8.30448 21.3817C8.30448 22.57 9.2525 23.4914 10.4275 23.4914C11.6025 23.4914 12.5372 22.5567 12.5238 21.3683Z" fill="#3E853C"/>
<path d="M39.9999 35.8302L41.1053 35.2774C42.0932 34.7834 43.2945 35.1839 43.7884 36.1718C44.2824 37.1597 43.882 38.361 42.8941 38.8549L38.9303 40.8368C38.9057 40.8498 38.8808 40.8622 38.8556 40.8742L38 41.302L37.1444 40.8742C37.1192 40.8622 37.0943 40.8498 37.0697 40.8368L33.1059 38.8549C32.118 38.361 31.7176 37.1597 32.2116 36.1718C32.7055 35.1839 33.9068 34.7834 34.8947 35.2774L36.0001 35.8302L36.0001 29.6C36.0001 28.4954 36.8955 27.6001 38 27.6001C39.1045 27.6001 39.9999 28.4954 39.9999 29.6L39.9999 35.8302Z" fill="#9CCC9A"/>
<path d="M23.2326 14.9992C26.7843 14.9992 29.6284 17.8567 29.6017 21.4218C29.5883 24.8266 26.8644 27.7641 23.1925 27.7641C19.6541 27.7641 16.7967 24.88 16.8234 21.3283C16.8234 17.8166 19.6808 14.9992 23.2326 14.9992Z" fill="#9CCC9A"/>
<path d="M12.524 21.3683C12.524 22.5567 11.6027 23.5047 10.4277 23.5047C9.25271 23.5047 8.30469 22.5701 8.30469 21.395C8.30469 20.1933 9.25271 19.2186 10.4277 19.2319C11.6027 19.2319 12.524 20.18 12.524 21.3683Z" fill="#9CCC9A"/>
</svg>
