<svg width="48" height="48" viewBox="0 0 48 48" fill="none" xmlns="http://www.w3.org/2000/svg">
<g opacity="0.8">
<path d="M21.9882 18.5948C21.9882 20.23 21.9882 21.8651 21.9882 23.5003C21.9882 25.103 22.8979 26.0019 24.5006 26.0019C27.771 26.0019 31.0413 26.0343 34.3009 25.991C35.4488 25.9802 36.3692 26.7599 36.5317 27.7995C36.5642 28.0052 36.5425 28.2002 36.4992 28.3951C36.0335 30.7558 35.0264 32.8675 33.4995 34.7193C31.2579 37.4374 28.3882 39.105 24.9337 39.7548C23.3852 40.0472 21.8258 40.0255 20.2664 39.8089C17.7649 39.4516 15.5233 38.4986 13.5416 36.9392C11.4407 35.2824 9.89217 33.214 8.92838 30.7125C8.13786 28.6441 7.87796 26.5 8.05123 24.3233C8.28946 21.4645 9.33988 18.8872 11.1375 16.6347C12.9785 14.3281 15.3284 12.7471 18.1439 11.8591C18.6854 11.6858 19.2377 11.5234 19.7899 11.4584C20.8837 11.3501 21.9666 12.2706 21.9774 13.4185C21.9991 15.1403 21.9882 16.8729 21.9882 18.5948Z" fill="#875CA8"/>
<path d="M32.6443 22.6881C30.9658 22.6881 29.2981 22.6881 27.6196 22.6881C26.2118 22.6881 25.313 21.7893 25.313 20.3924C25.313 17.0137 25.313 13.6459 25.313 10.2672C25.313 8.77279 26.4717 7.76568 27.9336 8.04724C33.8788 9.18429 37.7881 12.6388 39.5965 18.4323C39.7698 18.9738 39.8781 19.5261 39.9647 20.0892C40.203 21.5403 39.2175 22.6773 37.7556 22.6881C36.0446 22.6881 34.3444 22.6881 32.6443 22.6881Z" fill="#C6AFDB"/>
</g>
</svg>
